STARTFONT 2.1
FONT -DEC-Miriam-Medium-O-Normal--11-80-100-100-P-60-ISO8859-8
SIZE 8 100 100
FONTBOUNDINGBOX 12 13 0 -3

STARTPROPERTIES 26
FONTNAME_REGISTRY ""
FAMILY_NAME "Miriam"
FOUNDRY "DEC"
WEIGHT_NAME "Medium"
SLANT "O"
SETWIDTH_NAME "Normal"
ADD_STYLE_NAME ""
PIXEL_SIZE 11
RESOLUTION_X 100
RESOLUTION_Y 100
SPACING "P"
AVERAGE_WIDTH 60
CHARSET_REGISTRY "ISO8859"
CHARSET_ENCODING "8"
CHARSET_COLLECTIONS "ASCII ISO8859-8 "
FULL_NAME "Miriam Medium Oblique"
COPYRIGHT "Digital Israel"
CAP_HEIGHT 8
X_HEIGHT 6
_DEC_DEVICE_FONTNAMES "PS=Miriam-Oblique-ISOLatinHebrew"
QUAD_WIDTH 6
POINT_SIZE 80
WEIGHT 10
DEFAULT_CHAR 0
FONT_DESCENT 2
FONT_ASCENT 10
ENDPROPERTIES

CHARS 152

STARTCHAR space
ENCODING 32
SWIDTH 180 0
DWIDTH 2 0
BBX 1 1 0 0
BITMAP
00
ENDCHAR

STARTCHAR exclam
ENCODING 33
SWIDTH 270 0
DWIDTH 3 0
BBX 2 8 1 0
BITMAP
40
40
40
40
80
80
00
80
ENDCHAR

STARTCHAR quotedbl
ENCODING 34
SWIDTH 360 0
DWIDTH 4 0
BBX 3 3 1 5
BITMAP
A0
A0
A0
ENDCHAR

STARTCHAR numbersign
ENCODING 35
SWIDTH 630 0
DWIDTH 7 0
BBX 7 7 0 1
BITMAP
14
14
7E
28
FC
50
50
ENDCHAR

STARTCHAR dollar
ENCODING 36
SWIDTH 540 0
DWIDTH 6 0
BBX 6 10 0 -1
BITMAP
08
3C
54
50
30
28
28
A8
F0
40
ENDCHAR

STARTCHAR percent
ENCODING 37
SWIDTH 810 0
DWIDTH 9 0
BBX 7 8 1 0
BITMAP
64
A8
A8
D0
26
2A
4A
4C
ENDCHAR

STARTCHAR ampersand
ENCODING 38
SWIDTH 810 0
DWIDTH 9 0
BBX 9 8 0 0
BITMAP
1800
2400
2400
1980
6A00
8400
8A00
7100
ENDCHAR

STARTCHAR quoteright
ENCODING 39
SWIDTH 270 0
DWIDTH 3 0
BBX 2 2 1 6
BITMAP
40
80
ENDCHAR

STARTCHAR parenleft
ENCODING 40
SWIDTH 360 0
DWIDTH 4 0
BBX 4 10 0 -2
BITMAP
10
20
40
40
80
80
80
80
40
20
ENDCHAR

STARTCHAR parenright
ENCODING 41
SWIDTH 450 0
DWIDTH 5 0
BBX 4 10 0 -2
BITMAP
40
20
10
10
10
10
20
20
40
80
ENDCHAR

STARTCHAR asterisk
ENCODING 42
SWIDTH 450 0
DWIDTH 5 0
BBX 3 3 1 5
BITMAP
A0
40
A0
ENDCHAR

STARTCHAR plus
ENCODING 43
SWIDTH 630 0
DWIDTH 7 0
BBX 6 5 1 1
BITMAP
10
10
FC
20
20
ENDCHAR

STARTCHAR comma
ENCODING 44
SWIDTH 270 0
DWIDTH 3 0
BBX 2 2 0 -1
BITMAP
40
80
ENDCHAR

STARTCHAR minus
ENCODING 45
SWIDTH 630 0
DWIDTH 7 0
BBX 5 1 1 3
BITMAP
F8
ENDCHAR

STARTCHAR period
ENCODING 46
SWIDTH 270 0
DWIDTH 3 0
BBX 1 1 1 0
BITMAP
80
ENDCHAR

STARTCHAR slash
ENCODING 47
SWIDTH 540 0
DWIDTH 6 0
BBX 7 10 0 -2
BITMAP
02
04
04
08
10
10
20
40
40
80
ENDCHAR

STARTCHAR zero
ENCODING 48
SWIDTH 540 0
DWIDTH 6 0
BBX 6 8 0 0
BITMAP
38
44
44
84
84
88
88
70
ENDCHAR

STARTCHAR one
ENCODING 49
SWIDTH 540 0
DWIDTH 6 0
BBX 3 8 1 0
BITMAP
60
20
20
20
40
40
40
E0
ENDCHAR

STARTCHAR two
ENCODING 50
SWIDTH 540 0
DWIDTH 6 0
BBX 6 8 0 0
BITMAP
38
44
44
08
10
20
48
F8
ENDCHAR

STARTCHAR three
ENCODING 51
SWIDTH 540 0
DWIDTH 6 0
BBX 6 8 0 0
BITMAP
38
44
04
18
08
88
88
70
ENDCHAR

STARTCHAR four
ENCODING 52
SWIDTH 540 0
DWIDTH 6 0
BBX 5 8 0 0
BITMAP
08
18
28
48
90
F8
10
38
ENDCHAR

STARTCHAR five
ENCODING 53
SWIDTH 540 0
DWIDTH 6 0
BBX 6 8 0 0
BITMAP
3C
20
40
70
08
08
88
70
ENDCHAR

STARTCHAR six
ENCODING 54
SWIDTH 540 0
DWIDTH 6 0
BBX 5 8 0 0
BITMAP
08
10
20
50
88
88
88
70
ENDCHAR

STARTCHAR seven
ENCODING 55
SWIDTH 540 0
DWIDTH 6 0
BBX 5 8 1 0
BITMAP
F8
88
10
20
40
40
80
80
ENDCHAR

STARTCHAR eight
ENCODING 56
SWIDTH 540 0
DWIDTH 6 0
BBX 6 8 0 0
BITMAP
38
44
44
78
88
88
88
70
ENDCHAR

STARTCHAR nine
ENCODING 57
SWIDTH 540 0
DWIDTH 6 0
BBX 5 8 1 0
BITMAP
70
88
88
88
70
20
40
80
ENDCHAR

STARTCHAR colon
ENCODING 58
SWIDTH 270 0
DWIDTH 3 0
BBX 2 5 1 0
BITMAP
40
00
00
00
80
ENDCHAR

STARTCHAR semicolon
ENCODING 59
SWIDTH 270 0
DWIDTH 3 0
BBX 3 6 0 -1
BITMAP
20
00
00
00
40
80
ENDCHAR

STARTCHAR less
ENCODING 60
SWIDTH 630 0
DWIDTH 7 0
BBX 7 5 0 1
BITMAP
06
38
C0
30
0C
ENDCHAR

STARTCHAR equal
ENCODING 61
SWIDTH 630 0
DWIDTH 7 0
BBX 6 3 1 2
BITMAP
7C
00
F8
ENDCHAR

STARTCHAR greater
ENCODING 62
SWIDTH 630 0
DWIDTH 7 0
BBX 7 5 0 1
BITMAP
60
18
06
38
C0
ENDCHAR

STARTCHAR question
ENCODING 63
SWIDTH 540 0
DWIDTH 6 0
BBX 5 8 1 0
BITMAP
70
88
08
10
20
40
00
40
ENDCHAR

STARTCHAR at
ENCODING 64
SWIDTH 810 0
DWIDTH 9 0
BBX 9 8 0 0
BITMAP
1E00
2100
5A80
A480
A500
9A00
4100
3E00
ENDCHAR

STARTCHAR A
ENCODING 65
SWIDTH 720 0
DWIDTH 8 0
BBX 8 8 0 0
BITMAP
1C
0C
14
14
22
7E
42
E7
ENDCHAR

STARTCHAR B
ENCODING 66
SWIDTH 540 0
DWIDTH 6 0
BBX 6 8 0 0
BITMAP
78
24
24
38
44
44
48
F0
ENDCHAR

STARTCHAR C
ENCODING 67
SWIDTH 720 0
DWIDTH 8 0
BBX 8 8 0 0
BITMAP
1D
63
40
80
80
82
44
38
ENDCHAR

STARTCHAR D
ENCODING 68
SWIDTH 630 0
DWIDTH 7 0
BBX 7 8 0 0
BITMAP
7C
26
22
22
42
44
4C
F8
ENDCHAR

STARTCHAR E
ENCODING 69
SWIDTH 540 0
DWIDTH 6 0
BBX 6 8 0 0
BITMAP
7C
24
20
38
40
40
48
F8
ENDCHAR

STARTCHAR F
ENCODING 70
SWIDTH 540 0
DWIDTH 6 0
BBX 6 8 0 0
BITMAP
7C
24
20
38
40
40
40
E0
ENDCHAR

STARTCHAR G
ENCODING 71
SWIDTH 720 0
DWIDTH 8 0
BBX 8 8 0 0
BITMAP
1D
63
40
80
9E
82
46
3A
ENDCHAR

STARTCHAR H
ENCODING 72
SWIDTH 720 0
DWIDTH 8 0
BBX 8 8 0 0
BITMAP
77
22
22
3E
44
44
44
EE
ENDCHAR

STARTCHAR I
ENCODING 73
SWIDTH 360 0
DWIDTH 4 0
BBX 4 8 0 0
BITMAP
70
20
20
20
40
40
40
E0
ENDCHAR

STARTCHAR J
ENCODING 74
SWIDTH 450 0
DWIDTH 5 0
BBX 6 8 0 0
BITMAP
1C
08
08
08
10
10
90
60
ENDCHAR

STARTCHAR K
ENCODING 75
SWIDTH 630 0
DWIDTH 7 0
BBX 8 8 0 0
BITMAP
77
24
28
30
50
48
44
E6
ENDCHAR

STARTCHAR L
ENCODING 76
SWIDTH 450 0
DWIDTH 5 0
BBX 5 8 0 0
BITMAP
70
20
20
20
40
40
48
F8
ENDCHAR

STARTCHAR M
ENCODING 77
SWIDTH 900 0
DWIDTH 10 0
BBX 10 8 0 0
BITMAP
71C0
3180
2A80
2A80
5500
4900
4900
EB80
ENDCHAR

STARTCHAR N
ENCODING 78
SWIDTH 720 0
DWIDTH 8 0
BBX 9 8 0 0
BITMAP
7380
3100
2900
2900
4A00
4A00
4600
E600
ENDCHAR

STARTCHAR O
ENCODING 79
SWIDTH 720 0
DWIDTH 8 0
BBX 8 8 0 0
BITMAP
1C
62
41
81
81
82
46
38
ENDCHAR

STARTCHAR P
ENCODING 80
SWIDTH 540 0
DWIDTH 6 0
BBX 6 8 0 0
BITMAP
78
24
24
24
78
40
40
E0
ENDCHAR

STARTCHAR Q
ENCODING 81
SWIDTH 810 0
DWIDTH 9 0
BBX 9 8 0 0
BITMAP
1C00
6200
4100
8100
8100
F200
4E80
3B00
ENDCHAR

STARTCHAR R
ENCODING 82
SWIDTH 540 0
DWIDTH 6 0
BBX 6 8 0 0
BITMAP
78
24
24
24
78
50
48
EC
ENDCHAR

STARTCHAR S
ENCODING 83
SWIDTH 540 0
DWIDTH 6 0
BBX 6 8 0 0
BITMAP
3C
44
40
60
18
08
88
F0
ENDCHAR

STARTCHAR T
ENCODING 84
SWIDTH 540 0
DWIDTH 6 0
BBX 5 8 1 0
BITMAP
F8
A8
20
20
40
40
40
E0
ENDCHAR

STARTCHAR U
ENCODING 85
SWIDTH 630 0
DWIDTH 7 0
BBX 7 8 1 0
BITMAP
EE
44
44
44
88
88
88
70
ENDCHAR

STARTCHAR V
ENCODING 86
SWIDTH 720 0
DWIDTH 8 0
BBX 7 8 1 0
BITMAP
EE
44
48
48
50
50
20
20
ENDCHAR

STARTCHAR W
ENCODING 87
SWIDTH 990 0
DWIDTH 11 0
BBX 11 8 1 0
BITMAP
E4E0
4440
4C80
4C80
5500
5500
2200
2200
ENDCHAR

STARTCHAR X
ENCODING 88
SWIDTH 720 0
DWIDTH 8 0
BBX 8 8 0 0
BITMAP
77
22
14
08
18
24
42
E7
ENDCHAR

STARTCHAR Y
ENCODING 89
SWIDTH 630 0
DWIDTH 7 0
BBX 7 8 1 0
BITMAP
EE
44
48
48
50
20
20
70
ENDCHAR

STARTCHAR Z
ENCODING 90
SWIDTH 540 0
DWIDTH 6 0
BBX 6 8 0 0
BITMAP
7C
44
08
10
20
40
88
F8
ENDCHAR

STARTCHAR bracketleft
ENCODING 91
SWIDTH 360 0
DWIDTH 4 0
BBX 4 10 0 -2
BITMAP
30
20
20
40
40
40
40
80
80
C0
ENDCHAR

STARTCHAR backslash
ENCODING 92
SWIDTH 450 0
DWIDTH 5 0
BBX 3 8 1 0
BITMAP
80
80
80
40
40
40
20
20
ENDCHAR

STARTCHAR bracketright
ENCODING 93
SWIDTH 360 0
DWIDTH 4 0
BBX 4 10 0 -2
BITMAP
30
10
10
20
20
20
20
40
40
C0
ENDCHAR

STARTCHAR asciicircum
ENCODING 94
SWIDTH 630 0
DWIDTH 7 0
BBX 5 6 1 2
BITMAP
20
20
50
50
88
88
ENDCHAR

STARTCHAR underscore
ENCODING 95
SWIDTH 450 0
DWIDTH 5 0
BBX 6 1 0 -2
BITMAP
FC
ENDCHAR

STARTCHAR quoteleft
ENCODING 96
SWIDTH 270 0
DWIDTH 3 0
BBX 2 2 1 6
BITMAP
80
40
ENDCHAR

STARTCHAR a
ENCODING 97
SWIDTH 540 0
DWIDTH 6 0
BBX 7 6 0 0
BITMAP
36
4C
88
88
98
6C
ENDCHAR

STARTCHAR b
ENCODING 98
SWIDTH 630 0
DWIDTH 7 0
BBX 7 8 0 0
BITMAP
60
20
2C
32
42
42
64
D8
ENDCHAR

STARTCHAR c
ENCODING 99
SWIDTH 540 0
DWIDTH 6 0
BBX 6 6 0 0
BITMAP
34
4C
80
80
88
70
ENDCHAR

STARTCHAR d
ENCODING 100
SWIDTH 540 0
DWIDTH 6 0
BBX 6 8 0 0
BITMAP
0C
04
34
48
88
88
98
6C
ENDCHAR

STARTCHAR e
ENCODING 101
SWIDTH 540 0
DWIDTH 6 0
BBX 6 6 0 0
BITMAP
38
44
FC
80
88
70
ENDCHAR

STARTCHAR f
ENCODING 102
SWIDTH 360 0
DWIDTH 4 0
BBX 5 8 0 0
BITMAP
18
20
70
20
40
40
40
E0
ENDCHAR

STARTCHAR g
ENCODING 103
SWIDTH 540 0
DWIDTH 6 0
BBX 8 8 0 -2
BITMAP
1B
26
44
44
4C
34
88
70
ENDCHAR

STARTCHAR h
ENCODING 104
SWIDTH 630 0
DWIDTH 7 0
BBX 6 8 0 0
BITMAP
60
20
28
34
44
48
48
EC
ENDCHAR

STARTCHAR i
ENCODING 105
SWIDTH 270 0
DWIDTH 3 0
BBX 3 8 0 0
BITMAP
20
00
60
20
40
40
40
E0
ENDCHAR

STARTCHAR j
ENCODING 106
SWIDTH 270 0
DWIDTH 3 0
BBX 3 10 0 -2
BITMAP
20
00
60
20
20
40
40
40
40
80
ENDCHAR

STARTCHAR k
ENCODING 107
SWIDTH 540 0
DWIDTH 6 0
BBX 6 8 0 0
BITMAP
60
20
2C
28
70
50
48
EC
ENDCHAR

STARTCHAR l
ENCODING 108
SWIDTH 270 0
DWIDTH 3 0
BBX 3 8 0 0
BITMAP
60
20
20
20
40
40
40
E0
ENDCHAR

STARTCHAR m
ENCODING 109
SWIDTH 810 0
DWIDTH 9 0
BBX 9 6 0 0
BITMAP
7B00
2480
2480
4900
4900
EB80
ENDCHAR

STARTCHAR n
ENCODING 110
SWIDTH 630 0
DWIDTH 7 0
BBX 6 6 0 0
BITMAP
68
34
24
48
48
EC
ENDCHAR

STARTCHAR o
ENCODING 111
SWIDTH 540 0
DWIDTH 6 0
BBX 6 6 0 0
BITMAP
38
44
84
84
88
70
ENDCHAR

STARTCHAR p
ENCODING 112
SWIDTH 540 0
DWIDTH 6 0
BBX 7 8 0 -2
BITMAP
6C
32
22
22
64
58
40
E0
ENDCHAR

STARTCHAR q
ENCODING 113
SWIDTH 540 0
DWIDTH 6 0
BBX 7 8 0 -2
BITMAP
36
4C
88
88
98
68
10
38
ENDCHAR

STARTCHAR r
ENCODING 114
SWIDTH 360 0
DWIDTH 4 0
BBX 5 6 0 0
BITMAP
68
30
20
40
40
E0
ENDCHAR

STARTCHAR s
ENCODING 115
SWIDTH 450 0
DWIDTH 5 0
BBX 5 6 0 0
BITMAP
38
48
60
10
90
E0
ENDCHAR

STARTCHAR t
ENCODING 116
SWIDTH 360 0
DWIDTH 4 0
BBX 3 8 1 0
BITMAP
40
40
E0
40
80
80
80
C0
ENDCHAR

STARTCHAR u
ENCODING 117
SWIDTH 540 0
DWIDTH 6 0
BBX 5 6 1 0
BITMAP
D8
48
48
90
B0
58
ENDCHAR

STARTCHAR v
ENCODING 118
SWIDTH 540 0
DWIDTH 6 0
BBX 7 6 0 0
BITMAP
EE
44
48
48
30
20
ENDCHAR

STARTCHAR w
ENCODING 119
SWIDTH 720 0
DWIDTH 8 0
BBX 9 6 0 0
BITMAP
EB80
4900
5500
5600
2400
2400
ENDCHAR

STARTCHAR x
ENCODING 120
SWIDTH 450 0
DWIDTH 5 0
BBX 6 6 0 0
BITMAP
6C
28
30
30
50
D8
ENDCHAR

STARTCHAR y
ENCODING 121
SWIDTH 540 0
DWIDTH 6 0
BBX 7 8 0 -2
BITMAP
EE
44
48
28
30
10
20
70
ENDCHAR

STARTCHAR z
ENCODING 122
SWIDTH 450 0
DWIDTH 5 0
BBX 5 6 0 0
BITMAP
78
50
20
40
90
F0
ENDCHAR

STARTCHAR braceleft
ENCODING 123
SWIDTH 360 0
DWIDTH 4 0
BBX 4 10 0 -2
BITMAP
10
20
20
40
80
40
40
80
80
40
ENDCHAR

STARTCHAR bar
ENCODING 124
SWIDTH 630 0
DWIDTH 7 0
BBX 2 8 3 0
BITMAP
40
40
40
40
80
80
80
80
ENDCHAR

STARTCHAR braceright
ENCODING 125
SWIDTH 360 0
DWIDTH 4 0
BBX 4 10 0 -2
BITMAP
20
10
10
20
10
20
20
20
40
80
ENDCHAR

STARTCHAR asciitilde
ENCODING 126
SWIDTH 720 0
DWIDTH 8 0
BBX 6 2 1 3
BITMAP
64
98
ENDCHAR

STARTCHAR cent
ENCODING 162
SWIDTH 540 0
DWIDTH 6 0
BBX 6 7 0 0
BITMAP
10
38
54
A0
A8
70
20
ENDCHAR

STARTCHAR sterling
ENCODING 163
SWIDTH 630 0
DWIDTH 7 0
BBX 6 8 0 0
BITMAP
3C
44
40
20
F8
20
44
F8
ENDCHAR

STARTCHAR currency
ENCODING 164
SWIDTH 630 0
DWIDTH 7 0
BBX 7 6 0 1
BITMAP
42
3C
24
48
78
84
ENDCHAR

STARTCHAR yen
ENCODING 165
SWIDTH 720 0
DWIDTH 8 0
BBX 7 8 1 0
BITMAP
EE
44
28
F8
20
F8
20
70
ENDCHAR

STARTCHAR brokenbar
ENCODING 166
SWIDTH 630 0
DWIDTH 7 0
BBX 2 8 3 0
BITMAP
40
40
40
00
00
80
80
80
ENDCHAR

STARTCHAR section
ENCODING 167
SWIDTH 540 0
DWIDTH 6 0
BBX 6 9 0 -1
BITMAP
18
24
30
48
48
30
90
90
60
ENDCHAR

STARTCHAR dieresis
ENCODING 168
SWIDTH 360 0
DWIDTH 4 0
BBX 3 1 1 7
BITMAP
A0
ENDCHAR

STARTCHAR copyright
ENCODING 169
SWIDTH 810 0
DWIDTH 9 0
BBX 9 8 0 0
BITMAP
1E00
2100
5C80
A280
A080
9D00
4200
3C00
ENDCHAR

STARTCHAR multiply
ENCODING 170
SWIDTH 630 0
DWIDTH 7 0
BBX 6 5 1 1
BITMAP
44
28
30
50
88
ENDCHAR

STARTCHAR guillemotleft
ENCODING 171
SWIDTH 540 0
DWIDTH 6 0
BBX 4 3 1 2
BITMAP
50
A0
50
ENDCHAR

STARTCHAR logicalnot
ENCODING 172
SWIDTH 720 0
DWIDTH 8 0
BBX 6 3 1 2
BITMAP
FC
04
04
ENDCHAR

STARTCHAR hyphen
ENCODING 173
SWIDTH 360 0
DWIDTH 4 0
BBX 3 1 0 3
BITMAP
E0
ENDCHAR

STARTCHAR registered
ENCODING 174
SWIDTH 810 0
DWIDTH 9 0
BBX 9 8 0 0
BITMAP
1E00
2100
5C80
9280
AC80
A500
4200
3C00
ENDCHAR

STARTCHAR macron
ENCODING 175
SWIDTH 450 0
DWIDTH 5 0
BBX 3 1 2 7
BITMAP
E0
ENDCHAR

STARTCHAR degree
ENCODING 176
SWIDTH 360 0
DWIDTH 4 0
BBX 3 3 1 5
BITMAP
60
A0
C0
ENDCHAR

STARTCHAR plusminus
ENCODING 177
SWIDTH 630 0
DWIDTH 7 0
BBX 7 5 0 1
BITMAP
08
7E
10
00
FC
ENDCHAR

STARTCHAR twosuperior
ENCODING 178
SWIDTH 270 0
DWIDTH 3 0
BBX 3 4 0 4
BITMAP
60
A0
40
E0
ENDCHAR

STARTCHAR threesuperior
ENCODING 179
SWIDTH 270 0
DWIDTH 3 0
BBX 3 4 0 4
BITMAP
E0
40
20
C0
ENDCHAR

STARTCHAR acute
ENCODING 180
SWIDTH 360 0
DWIDTH 4 0
BBX 2 2 2 7
BITMAP
40
80
ENDCHAR

STARTCHAR mu
ENCODING 181
SWIDTH 540 0
DWIDTH 6 0
BBX 7 8 0 -2
BITMAP
66
22
22
44
4C
B6
80
80
ENDCHAR

STARTCHAR paragraph
ENCODING 182
SWIDTH 630 0
DWIDTH 7 0
BBX 6 9 1 -1
BITMAP
7C
E8
E8
68
28
50
50
50
50
ENDCHAR

STARTCHAR periodcentered
ENCODING 183
SWIDTH 270 0
DWIDTH 3 0
BBX 1 1 1 3
BITMAP
80
ENDCHAR

STARTCHAR cedilla
ENCODING 184
SWIDTH 270 0
DWIDTH 3 0
BBX 3 3 0 -2
BITMAP
40
20
C0
ENDCHAR

STARTCHAR onesuperior
ENCODING 185
SWIDTH 270 0
DWIDTH 3 0
BBX 3 4 0 4
BITMAP
C0
40
40
E0
ENDCHAR

STARTCHAR divide
ENCODING 186
SWIDTH 630 0
DWIDTH 7 0
BBX 6 5 1 1
BITMAP
10
00
FC
00
20
ENDCHAR

STARTCHAR guillemotright
ENCODING 187
SWIDTH 540 0
DWIDTH 6 0
BBX 4 3 1 2
BITMAP
A0
50
A0
ENDCHAR

STARTCHAR onequarter
ENCODING 188
SWIDTH 810 0
DWIDTH 9 0
BBX 8 8 1 0
BITMAP
C4
48
48
F0
12
26
2F
44
ENDCHAR

STARTCHAR onehalf
ENCODING 189
SWIDTH 810 0
DWIDTH 9 0
BBX 7 8 1 0
BITMAP
C4
48
48
F0
16
2A
24
4E
ENDCHAR

STARTCHAR threequarters
ENCODING 190
SWIDTH 810 0
DWIDTH 9 0
BBX 8 8 1 0
BITMAP
E4
48
28
D0
12
26
2F
44
ENDCHAR

STARTCHAR dblunderscore
ENCODING 223
SWIDTH 450 0
DWIDTH 5 0
BBX 5 10 0 -3
BITMAP
00
00
00
00
F8
00
00
00
00
F8
ENDCHAR

STARTCHAR aleph
ENCODING 224
SWIDTH 630 0
DWIDTH 7 0
BBX 7 7 0 0
BITMAP
16
12
12
2C
48
44
64
ENDCHAR

STARTCHAR beth
ENCODING 225
SWIDTH 540 0
DWIDTH 6 0
BBX 6 7 0 0
BITMAP
78
08
08
10
10
10
F8
ENDCHAR

STARTCHAR gimmel
ENCODING 226
SWIDTH 540 0
DWIDTH 6 0
BBX 6 7 0 0
BITMAP
1C
04
04
04
18
28
C8
ENDCHAR

STARTCHAR daleth
ENCODING 227
SWIDTH 540 0
DWIDTH 6 0
BBX 6 7 0 0
BITMAP
7C
08
08
08
10
10
10
ENDCHAR

STARTCHAR he
ENCODING 228
SWIDTH 540 0
DWIDTH 6 0
BBX 6 7 0 0
BITMAP
7C
04
04
24
48
48
48
ENDCHAR

STARTCHAR waw
ENCODING 229
SWIDTH 270 0
DWIDTH 3 0
BBX 3 7 0 0
BITMAP
60
20
20
20
40
40
40
ENDCHAR

STARTCHAR zayin
ENCODING 230
SWIDTH 360 0
DWIDTH 4 0
BBX 4 7 0 0
BITMAP
70
20
20
20
40
40
40
ENDCHAR

STARTCHAR het
ENCODING 231
SWIDTH 540 0
DWIDTH 6 0
BBX 6 7 0 0
BITMAP
7C
28
28
28
50
50
50
ENDCHAR

STARTCHAR teth
ENCODING 232
SWIDTH 630 0
DWIDTH 7 0
BBX 7 7 0 0
BITMAP
66
2A
2A
22
44
44
7C
ENDCHAR

STARTCHAR yod
ENCODING 233
SWIDTH 360 0
DWIDTH 4 0
BBX 3 5 1 2
BITMAP
E0
20
20
40
00
ENDCHAR

STARTCHAR kaphfinal
ENCODING 234
SWIDTH 540 0
DWIDTH 6 0
BBX 6 9 0 -2
BITMAP
7C
08
08
10
10
10
20
20
30
ENDCHAR

STARTCHAR kaph
ENCODING 235
SWIDTH 450 0
DWIDTH 5 0
BBX 5 7 0 0
BITMAP
78
08
08
08
10
10
E0
ENDCHAR

STARTCHAR lamed
ENCODING 236
SWIDTH 540 0
DWIDTH 6 0
BBX 6 10 0 0
BITMAP
00
40
40
7C
04
04
08
10
20
30
ENDCHAR

STARTCHAR memfinal
ENCODING 237
SWIDTH 540 0
DWIDTH 6 0
BBX 6 7 0 0
BITMAP
7C
24
24
24
48
48
78
ENDCHAR

STARTCHAR mem
ENCODING 238
SWIDTH 630 0
DWIDTH 7 0
BBX 7 7 0 0
BITMAP
6E
32
22
22
44
44
5C
ENDCHAR

STARTCHAR nunfinal
ENCODING 239
SWIDTH 270 0
DWIDTH 3 0
BBX 3 9 0 -2
BITMAP
60
20
20
40
40
40
80
80
C0
ENDCHAR

STARTCHAR nun
ENCODING 240
SWIDTH 360 0
DWIDTH 4 0
BBX 4 7 0 0
BITMAP
70
10
10
10
20
20
E0
ENDCHAR

STARTCHAR samekh
ENCODING 241
SWIDTH 630 0
DWIDTH 7 0
BBX 7 7 0 0
BITMAP
7E
22
22
44
44
48
30
ENDCHAR

STARTCHAR ayin
ENCODING 242
SWIDTH 540 0
DWIDTH 6 0
BBX 6 9 0 -2
BITMAP
6C
24
24
44
48
48
F8
00
00
ENDCHAR

STARTCHAR pefinal
ENCODING 243
SWIDTH 540 0
DWIDTH 6 0
BBX 6 9 0 -2
BITMAP
7C
44
84
88
C8
08
10
10
1C
ENDCHAR

STARTCHAR pe
ENCODING 244
SWIDTH 540 0
DWIDTH 6 0
BBX 6 7 0 0
BITMAP
3C
24
44
64
08
08
78
ENDCHAR

STARTCHAR zadikfinal
ENCODING 245
SWIDTH 540 0
DWIDTH 6 0
BBX 6 9 0 -2
BITMAP
6C
24
28
30
40
40
40
80
E0
ENDCHAR

STARTCHAR zadik
ENCODING 246
SWIDTH 540 0
DWIDTH 6 0
BBX 6 7 0 0
BITMAP
6C
24
28
10
10
10
F0
ENDCHAR

STARTCHAR kof
ENCODING 247
SWIDTH 540 0
DWIDTH 6 0
BBX 6 9 0 -2
BITMAP
7C
04
04
48
50
60
B0
80
80
ENDCHAR

STARTCHAR resh
ENCODING 248
SWIDTH 540 0
DWIDTH 6 0
BBX 6 7 0 0
BITMAP
7C
04
04
04
08
08
08
ENDCHAR

STARTCHAR shin
ENCODING 249
SWIDTH 720 0
DWIDTH 8 0
BBX 8 7 0 0
BITMAP
6B
49
49
49
92
92
FE
ENDCHAR

STARTCHAR taf
ENCODING 250
SWIDTH 630 0
DWIDTH 7 0
BBX 7 7 0 0
BITMAP
3E
12
12
12
24
24
E4
ENDCHAR
ENDFONT
